# xmcd
#
# Track frame offsets: 
#        150
#        19026
#        38888
#        57181
#        66625
#        80195
#        98672
#        114089
#        131667
#        144128
#        161387
#
# Disc length: 2350 seconds
#
# Revision: 0
# Processed by: cddbd v1.5.2PL0 Copyright (c) Steve Scherf et al.
# Submitted via: ExactAudioCopy v0.95b4
#
DISCID=8c092c0b
DTITLE=Alice Bange - Small Town Girl
DYEAR=2009
DGENRE=Country
TTITLE0=Under Your Spell
TTITLE1=Crazy Little Friend Of Mine
TTITLE2=What A Day
TTITLE3=Land Of Dreams
TTITLE4=Yellow Fields
TTITLE5=Not Meant To Be
TTITLE6=Alone At Night
TTITLE7=Ready For Love
TTITLE8=Get A Good Start
TTITLE9=Small Town Girl
TTITLE10=Darling One
EXTD=
EXTT0=
EXTT1=
EXTT2=
EXTT3=
EXTT4=
EXTT5=
EXTT6=
EXTT7=
EXTT8=
EXTT9=
EXTT10=
PLAYORDER=
